<?xml version="1.0" standalone="no"?>
<!DOCTYPE svg PUBLIC "-//W3C//DTD SVG 20010904//EN"
 "http://www.w3.org/TR/2001/REC-SVG-20010904/DTD/svg10.dtd">
<svg version="1.0" xmlns="http://www.w3.org/2000/svg"
 viewBox="0 0 877 329"
 preserveAspectRatio="xMidYMid meet">

<g transform="translate(0.000000,329.000000) scale(0.100000,-0.100000)"
fill="#000" stroke="none">
<path d="M1287 3004 c-67 -92 -207 -282 -312 -423 -104 -141 -220 -298 -257
-349 -37 -51 -74 -92 -82 -92 -8 0 -32 21 -53 46 -66 79 -116 93 -164 45 -42
-42 -38 -75 14 -136 24 -28 85 -102 136 -165 51 -63 99 -118 106 -122 27 -16
73 13 111 70 89 134 161 191 487 381 149 87 177 108 177 127 0 36 -29 44 -159
44 -67 0 -121 4 -121 9 0 4 27 68 61 142 76 170 239 545 239 552 0 11 -32 37
-46 37 -8 0 -70 -75 -137 -166z" fill="#33fda9"/>
<path d="M595 2805 c-311 -67 -534 -371 -511 -696 20 -291 204 -522 482 -605
79 -24 236 -24 324 0 219 59 395 230 466 451 29 91 44 228 25 239 -9 6 -129
-50 -150 -69 -2 -2 -9 -34 -17 -70 -50 -238 -249 -405 -484 -405 -141 0 -248
47 -344 150 -96 104 -136 208 -136 351 0 237 153 435 380 494 61 16 104 17
250 2 16 -1 24 3 22 11 -1 8 1 11 6 8 10 -6 40 24 67 67 16 25 16 30 4 43 -39
38 -263 56 -384 29z" fill="#33fda9"/>
</g>
</svg>
