<?xml version="1.0" standalone="no"?>
<!DOCTYPE svg PUBLIC "-//W3C//DTD SVG 20010904//EN"
 "http://www.w3.org/TR/2001/REC-SVG-20010904/DTD/svg10.dtd">
<svg version="1.0" xmlns="http://www.w3.org/2000/svg"
 width="877.000000pt" height="329.000000pt" viewBox="0 0 877.000000 329.000000"
 preserveAspectRatio="xMidYMid meet">

<g transform="translate(0.000000,329.000000) scale(0.100000,-0.100000)"
fill="#000" stroke="none">
<path d="M1287 3004 c-67 -92 -207 -282 -312 -423 -104 -141 -220 -298 -257
-349 -37 -51 -74 -92 -82 -92 -8 0 -32 21 -53 46 -66 79 -116 93 -164 45 -42
-42 -38 -75 14 -136 24 -28 85 -102 136 -165 51 -63 99 -118 106 -122 27 -16
73 13 111 70 89 134 161 191 487 381 149 87 177 108 177 127 0 36 -29 44 -159
44 -67 0 -121 4 -121 9 0 4 27 68 61 142 76 170 239 545 239 552 0 11 -32 37
-46 37 -8 0 -70 -75 -137 -166z" fill="#33fda9"/>
<path d="M595 2805 c-311 -67 -534 -371 -511 -696 20 -291 204 -522 482 -605
79 -24 236 -24 324 0 219 59 395 230 466 451 29 91 44 228 25 239 -9 6 -129
-50 -150 -69 -2 -2 -9 -34 -17 -70 -50 -238 -249 -405 -484 -405 -141 0 -248
47 -344 150 -96 104 -136 208 -136 351 0 237 153 435 380 494 61 16 104 17
250 2 16 -1 24 3 22 11 -1 8 1 11 6 8 10 -6 40 24 67 67 16 25 16 30 4 43 -39
38 -263 56 -384 29z" fill="#33fda9"/>
<path d="M6163 2779 c-37 -13 -58 -60 -137 -299 -150 -450 -229 -735 -224
-802 3 -39 7 -45 42 -62 64 -31 82 -18 126 96 134 347 431 641 430 426 0 -18
-18 -98 -40 -178 -71 -258 -49 -350 81 -350 56 0 117 31 184 91 l53 49 7 -29
c14 -66 74 -111 149 -111 64 0 90 13 158 77 52 50 59 54 53 31 -11 -42 11 -94
45 -108 52 -21 66 -8 99 95 56 174 148 330 258 437 129 126 164 66 101 -175
-23 -89 -31 -146 -32 -210 -1 -88 -1 -89 32 -118 62 -56 165 -32 259 58 l46
45 -7 -56 c-6 -54 -5 -57 20 -66 36 -14 120 -12 131 3 6 6 20 66 32 132 12 66
28 144 35 173 l12 54 54 -92 c74 -126 155 -211 235 -251 57 -28 71 -31 134
-27 85 4 121 30 121 85 l0 34 -45 -6 c-86 -13 -164 47 -266 205 l-49 74 23 24
c12 14 106 94 210 179 103 85 185 159 182 164 -4 5 -46 9 -94 9 -79 0 -92 -3
-127 -26 -54 -36 -295 -246 -333 -289 -17 -20 -31 -34 -31 -31 0 2 14 64 31
137 85 368 99 438 99 482 0 26 -1 47 -2 47 -2 0 -33 3 -69 6 -38 4 -74 2 -84
-4 -15 -8 -25 -50 -51 -203 -51 -301 -108 -531 -149 -599 -68 -111 -153 -188
-192 -173 -24 9 -14 85 32 247 67 236 60 327 -29 370 -89 43 -205 -18 -316
-166 -34 -46 -66 -84 -70 -86 -5 -2 3 31 16 73 13 42 24 89 24 106 0 42 -39
79 -84 79 -42 0 -61 -23 -71 -90 -18 -109 -67 -247 -122 -339 -63 -106 -148
-201 -180 -201 -60 0 -55 70 22 311 60 187 66 228 35 259 -23 23 -77 27 -103
7 -12 -8 -32 -69 -59 -172 -49 -193 -63 -225 -135 -304 -60 -67 -97 -91 -139
-91 -27 0 -27 0 -21 58 3 31 24 116 47 187 70 218 64 325 -20 368 -46 24 -115
17 -181 -20 -29 -15 -91 -69 -145 -125 -52 -54 -94 -95 -94 -90 0 5 27 92 59
193 116 360 130 429 94 461 -26 22 -45 26 -70 17z"/>
<path d="M5610 2743 c-180 -18 -435 -78 -512 -120 -56 -31 -85 -75 -74 -116
10 -42 38 -42 149 1 112 44 156 57 259 77 69 13 70 13 64 -8 -43 -158 -133
-530 -160 -665 -42 -202 -45 -261 -16 -287 22 -20 93 -26 111 -8 6 6 24 78 39
159 41 215 73 359 136 617 l56 229 164 -3 c189 -3 197 0 198 73 1 42 0 42 -39
50 -40 7 -309 8 -375 1z"/>
<path d="M2340 2728 c0 -2 -1 -92 -1 -200 0 -170 -6 -224 -21 -190 -9 22 -80
63 -133 77 -194 51 -390 -85 -436 -303 -16 -79 -6 -203 22 -277 32 -83 123
-174 199 -201 116 -40 249 -18 332 55 20 17 38 31 42 31 3 0 6 -20 6 -45 l0
-45 95 0 95 0 0 550 0 550 -100 0 c-55 0 -100 -1 -100 -2z m-100 -497 c19 -10
48 -40 65 -66 28 -45 30 -56 30 -139 0 -107 -13 -151 -61 -200 -69 -71 -170
-74 -247 -5 -61 53 -80 105 -76 207 3 66 9 86 34 127 54 87 170 122 255 76z"/>
<path d="M6906 2627 c-23 -19 -30 -33 -33 -73 -5 -47 -3 -53 23 -73 38 -30 99
-24 131 14 30 35 32 106 3 135 -28 28 -87 26 -124 -3z"/>
<path d="M3918 2409 c-61 -7 -106 -30 -153 -79 -26 -27 -30 -29 -37 -13 -3 10
-7 33 -7 51 l-1 32 -95 0 -95 0 0 -385 0 -385 99 0 99 0 4 248 c3 228 5 250
24 282 31 53 77 80 138 80 79 0 124 -31 153 -105 7 -20 12 -111 12 -267 l1
-238 101 0 101 0 -4 278 c-5 309 -10 336 -75 411 -62 73 -150 103 -265 90z"/>
<path d="M4657 2409 c-115 -17 -227 -100 -276 -205 -48 -102 -53 -246 -11
-356 87 -233 424 -314 613 -148 43 37 91 114 84 133 -3 9 -115 47 -140 47 -2
0 -16 -17 -30 -39 -87 -132 -306 -93 -352 63 -8 27 -15 56 -15 63 0 10 54 13
276 13 l277 0 -5 93 c-4 75 -10 103 -33 150 -31 63 -91 124 -153 156 -32 16
-152 44 -172 40 -3 -1 -31 -5 -63 -10z m162 -168 c35 -25 60 -61 67 -98 l7
-33 -173 0 -172 0 7 28 c8 34 49 88 78 104 58 31 142 31 186 -1z"/>
<path d="M2893 2392 c-105 -37 -176 -104 -227 -212 -27 -58 -30 -75 -31 -160
0 -113 19 -177 75 -251 82 -109 180 -154 335 -154 91 0 106 3 167 32 109 51
182 139 212 258 52 199 -34 390 -212 473 -77 35 -239 43 -319 14z m256 -176
c123 -86 123 -322 -1 -403 -46 -31 -127 -41 -182 -23 -47 15 -110 88 -126 145
-26 92 3 206 67 267 40 39 70 48 139 45 49 -2 71 -9 103 -31z"/>
</g>
</svg>
