<?xml version="1.0" standalone="no"?>
<!DOCTYPE svg PUBLIC "-//W3C//DTD SVG 20010904//EN"
 "http://www.w3.org/TR/2001/REC-SVG-20010904/DTD/svg10.dtd">
<svg version="1.0" xmlns="http://www.w3.org/2000/svg"
 width="157.000000pt" height="171.000000pt" viewBox="0 0 157.000000 171.000000"
 preserveAspectRatio="xMidYMid meet">

<g transform="translate(0.000000,171.000000) scale(0.100000,-0.100000)"
fill="#000000" stroke="none">
<path d="M1273 1524 c-76 -103 -210 -284 -298 -403 -89 -119 -196 -265 -239
-324 -44 -60 -86 -111 -94 -114 -9 -4 -33 15 -65 51 -65 71 -106 82 -154 42
-48 -40 -48 -68 0 -129 111 -140 231 -283 247 -295 34 -25 67 -4 125 79 95
134 141 168 533 398 102 61 122 76 122 96 0 37 -28 45 -159 45 -67 0 -121 4
-121 9 0 4 27 68 61 142 33 74 102 228 151 343 95 218 99 237 50 244 -18 3
-47 -31 -159 -184z"/>
<path d="M591 1345 c-151 -33 -319 -152 -403 -285 -236 -372 -64 -872 347
-1007 67 -22 98 -26 195 -26 101 0 126 3 200 28 104 36 211 106 285 188 65 72
136 209 159 307 18 74 21 176 6 185 -14 9 -148 -64 -154 -84 -2 -9 -10 -41
-16 -71 -27 -122 -119 -252 -226 -320 -140 -88 -343 -94 -483 -13 -155 90
-251 257 -251 437 0 153 43 259 150 367 120 121 279 171 443 138 55 -11 56
-11 81 17 15 16 36 44 47 62 19 29 20 36 7 48 -39 39 -263 55 -387 29z"/>
</g>
</svg>
